{"title":"Jack The Giant Slayer 2013 CAMRip Xvid READNFO-INFERNO","uid":8270313,"size":1312375277,"categoryP":"video","categoryS":"movies","magnet":"?xt=urn:btih:5b293238b51cb94b877778e951255c7e0bdda69b&amp;dn=Jack+The+Giant+Slayer+2013+CAMRip+Xvid+READNFO-INFERNO&amp;tr=udp%3A%2F%2Ftracker.openbittorrent.com%3A80&amp;tr=udp%3A%2F%2Fopen.demonii.com%3A1337&amp;tr=udp%3A%2F%2Ftracker.coppersurfer.tk%3A6969&amp;tr=udp%3A%2F%2Fexodus.desync.com%3A6969","seeders":1,"leechers":0,"uploader":"Gh0stNet","files":6,"time":1363607312,"description":"::::::::::: ::::    ::: :::::::::: :::::::::: :::::::::  ::::    :::  ::::::::  \n  :+:     :+:+:   :+: :+:        :+:        :+:    :+: :+:+:   :+: :+:    :+:\n  +:+     :+:+:+  +:+ +:+        +:+        +:+    +:+ :+:+:+  +:+ +:+    +:+\n  +#+     +#+ +:+ +#+ :#::+::#   +#++:++#   +#++:++#:  +#+ +:+ +#+ +#+    +:+\n  +#+     +#+  +#+#+# +#+        +#+        +#+    +#+ +#+  +#+#+# +#+    +#+\n  #+#     #+#   #+#+# #+#        #+#        #+#    #+# #+#   #+#+# #+#    #+#\n########### ###    #### ###        ########## ###    ### ###    ####  ########  \n\nSOURCE: HustleHard/NOGRP THANKS\nNOT A GREAT SOURCE WITH LOTS OF MOVEMENT,OUT OF FOCUS,NOISE IN THE VID,OFF CENTER BORDERS,BLABLABLA ETC BUT IT IS PROPER ( FULL ) FROM BEGINNING TO END WITH ENGLISH AUDIO SO SOMETHING IS BETTER THEN NOTHING!\nWORK DONE: WELL DID A COUPLE VERSION AND CHOOSE THIS FOR OUR V1 SO TO SPEAK SO THAT MEANS WE MIGHT DO/PICK A V2...\nFIRST CONVERTED TO AVI AND MP3 AND DROPPED THE FILE IN VDUB WHERE WE ROATED BY 1,200 USING THE BICUBIC FILTER AND THEN USED A CENTER AND BORDER FILTER AND PULLED THE RIGHT SIDE TO THE LEFT TO TRY AND CENTER THE VID A BIT MORE!\nCROPPED,CROPPED A BIT MORE AND CROPPED AGAIN( TOP 34,YOUR LEFT48,RIGHT BY 10 AND BOTTOM BY 32) TILL WE COULDN'T CROP ANYMORE WITHOUT LOSING THE WHOLE PICTURE LOL AND THEN RESIZED AND ADDED A DENOISER.\nADDED SOME INT AS WELL AS A LITTLE SAT AND A TINY TINY BIT OF BRIGHTNESS.\nNEXT ADDED THE WARP SHARP FILTER TO TRY TO BRING THE FACES OUT A LITTLE MORE IN THE DARK PARTS AND LAST ADDED A MOTION FILTER TO TRY AND REMOVE SOME OF THE FLICKER CAUSE AS MOST KNOW BY USING THE DEFLICKER WILL SOMETIMES LEAVE A GHOSTING EFFECT AS WELL AS SOME SPOTTY GLITCHES SO TO SPEAK\n\nWE CUT THE FIRST 40 SECONDS OFF THE INTRO CAUSE IT WAS JUST A INTRO WITH NOTHING BUT MOVEMENT AND THE CAMMER &quot;TRYING&quot; TO GET CENTERED\n\n4 SAMPLES INCLUDED SO PLEASE CHECK THEM BEFORE YOU DECIDE IF YOU WANNA DOWNLOAD THIS OR NOT AS SOME PARTS LOOKS BETTER THEN OTHERS AND YES YOU HAVE BEEN WARNED!!!\n\nAUDIO UNTOUCHED OTHER THEN CONVERTED TO MP3 AND YES YOU HERE THE GUY BREATHING!!!\n\nSTILL HAS SOME NOISE AND A SLIGHT PULSE WITH SOME MOVEMENT AND A FEW BORDERS SO ITS A BIT BETTER IMO AND NOT GREAT BUT WE DID WHAT WE COULD FOR YA!\nCOULD HAVE DARKENED IT UP TO REMOVE MORE NOISE LOL BUT THEN THERE WOULD BE NO DEATAIL!!!\nPLEASE REALIZE YOU CAN ONLY POLISH A TURD SO MUCH...\n\nGeneral\nComplete name                            : JtG 2013 CAMRip Xvid-INF.avi\nFormat                                   : AVI\nFormat/Info                              : Audio Video Interleave\nFile size                                : 1.16 GiB\nDuration                                 : 1h 42mn\nOverall bit rate                         : 1 619 Kbps\nWriting application                      : Lavf54.6.100\nWriting library                          : VirtualDub build 32842/release\n\nVideo\nID                                       : 0\nFormat                                   : MPEG-4 Visual\nFormat profile                           : Advanced Simple@L5\nFormat settings, BVOP                    : 2\nFormat settings, QPel                    : No\nFormat settings, GMC                     : No warppoints\nFormat settings, Matrix                  : Default (H.263)\nMuxing mode                              : Packed bitstream\nCodec ID                                 : XVID\nCodec ID/Hint                            : XviD\nDuration                                 : 1h 42mn\nBit rate                                 : 1 478 Kbps\nWidth                                    : 624 pixels\nHeight                                   : 320 pixels\nDisplay aspect ratio                     : 1.950\nFrame rate                               : 29.970 fps\nColor space                              : YUV\nChroma subsampling                       : 4:2:0\nBit depth                                : 8 bits\nScan type                                : Progressive\nCompression mode                         : Lossy\nBits/(Pixel*Frame)                       : 0.247\nStream size                              : 1.06 GiB (91%)\nWriting library                          : XviD 64\n\nAudio\nID                                       : 1\nFormat                                   : MPEG Audio\nFormat version                           : Version 1\nFormat profile                           : Layer 3\nMode                                     : Joint stereo\nMode extension                           : MS Stereo\nCodec ID                                 : 55\nCodec ID/Hint                            : MP3\nDuration                                 : 1h 42mn\nBit rate mode                            : Constant\nBit rate                                 : 128 Kbps\nChannel(s)                               : 2 channels\nSampling rate                            : 44.1 KHz\nCompression mode                         : Lossy\nStream size                              : 94.2 MiB (8%)\nAlignment                                : Aligned on interleaves\nInterleave, duration                     : 26 ms (0.78 video frame)\nInterleave, preload duration             : 522 ms\n\n\nScreens: &lt;a href=&quot;\nhttp://i.imgur.com/gbhP8Ui.png&quot; rel=&quot;nofollow&quot; target=&quot;_NEW&quot;&gt;\nhttp://i.imgur.com/gbhP8Ui.png&lt;/a&gt; &lt;a href=&quot;\nhttp://i.imgur.com/eQA8SZS.png&quot; rel=&quot;nofollow&quot; target=&quot;_NEW&quot;&gt;\nhttp://i.imgur.com/eQA8SZS.png&lt;/a&gt; &lt;a href=&quot;\nhttp://i.imgur.com/elemxL9.png&quot; rel=&quot;nofollow&quot; target=&quot;_NEW&quot;&gt;\nhttp://i.imgur.com/elemxL9.png&lt;/a&gt; &lt;a href=&quot;\nhttp://i.imgur.com/55RRv5d.png&quot; rel=&quot;nofollow&quot; target=&quot;_NEW&quot;&gt;\nhttp://i.imgur.com/55RRv5d.png&lt;/a&gt; &lt;a href=&quot;\nhttp://i.imgur.com/ju3Obff.png&quot; rel=&quot;nofollow&quot; target=&quot;_NEW&quot;&gt;\nhttp://i.imgur.com/ju3Obff.png&lt;/a&gt;\n","torrent":{"xt":"urn:btih:5b293238b51cb94b877778e951255c7e0bdda69b","amp;dn":"Jack+The+Giant+Slayer+2013+CAMRip+Xvid+READNFO-INFERNO","amp;tr":["udp%3A%2F%2Ftracker.openbittorrent.com%3A80","udp%3A%2F%2Fopen.demonii.com%3A1337","udp%3A%2F%2Ftracker.coppersurfer.tk%3A6969","udp%3A%2F%2Fexodus.desync.com%3A6969"],"infoHash":"5b293238b51cb94b877778e951255c7e0bdda69b","infoHashBuffer":{"type":"Buffer","data":[91,41,50,56,181,28,185,75,135,119,120,233,81,37,92,126,11,221,166,155]},"announce":[],"urlList":[]}}